<svg width="24" height="24" viewBox="0 0 24 24" fill="none" xmlns="http://www.w3.org/2000/svg">
<g clip-path="url(#clip0_52_80)">
<path d="M9.5 2H3.5C3.10234 2.00053 2.72111 2.15873 2.43992 2.43992C2.15873 2.72111 2.00053 3.10234 2 3.5V9.5C2.00053 9.89766 2.15873 10.2789 2.43992 10.5601C2.72111 10.8413 3.10234 10.9995 3.5 11H9.5C9.89766 10.9995 10.2789 10.8413 10.5601 10.5601C10.8413 10.2789 10.9995 9.89766 11 9.5V3.5C10.9995 3.10234 10.8413 2.72111 10.5601 2.43992C10.2789 2.15873 9.89766 2.00053 9.5 2ZM10 9.5C9.99974 9.63253 9.94697 9.75955 9.85326 9.85326C9.75955 9.94697 9.63253 9.99974 9.5 10H3.5C3.36747 9.99974 3.24045 9.94697 3.14674 9.85326C3.05303 9.75955 3.00026 9.63253 3 9.5V3.5C3.00026 3.36747 3.05303 3.24045 3.14674 3.14674C3.24045 3.05303 3.36747 3.00026 3.5 3H9.5C9.63253 3.00026 9.75955 3.05303 9.85326 3.14674C9.94697 3.24045 9.99974 3.36747 10 3.5V9.5ZM20.5 2H14.5C14.1023 2.00053 13.7211 2.15873 13.4399 2.43992C13.1587 2.72111 13.0005 3.10234 13 3.5V9.5C13.0005 9.89766 13.1587 10.2789 13.4399 10.5601C13.7211 10.8413 14.1023 10.9995 14.5 11H20.5C20.8977 10.9995 21.2789 10.8413 21.5601 10.5601C21.8413 10.2789 21.9995 9.89766 22 9.5V3.5C21.9995 3.10234 21.8413 2.72111 21.5601 2.43992C21.2789 2.15873 20.8977 2.00053 20.5 2ZM21 9.5C20.9997 9.63253 20.947 9.75955 20.8533 9.85326C20.7596 9.94697 20.6325 9.99974 20.5 10H14.5C14.3675 9.99974 14.2404 9.94697 14.1467 9.85326C14.053 9.75955 14.0003 9.63253 14 9.5V3.5C14.0003 3.36747 14.053 3.24045 14.1467 3.14674C14.2404 3.05303 14.3675 3.00026 14.5 3H20.5C20.6325 3.00026 20.7596 3.05303 20.8533 3.14674C20.947 3.24045 20.9997 3.36747 21 3.5V9.5ZM9.5 13H3.5C3.10234 13.0005 2.72111 13.1587 2.43992 13.4399C2.15873 13.7211 2.00053 14.1023 2 14.5V20.5C2.00053 20.8977 2.15873 21.2789 2.43992 21.5601C2.72111 21.8413 3.10234 21.9995 3.5 22H9.5C9.89766 21.9995 10.2789 21.8413 10.5601 21.5601C10.8413 21.2789 10.9995 20.8977 11 20.5V14.5C10.9995 14.1023 10.8413 13.7211 10.5601 13.4399C10.2789 13.1587 9.89766 13.0005 9.5 13ZM10 20.5C9.99974 20.6325 9.94697 20.7596 9.85326 20.8533C9.75955 20.947 9.63253 20.9997 9.5 21H3.5C3.36747 20.9997 3.24045 20.947 3.14674 20.8533C3.05303 20.7596 3.00026 20.6325 3 20.5V14.5C3.00026 14.3675 3.05303 14.2404 3.14674 14.1467C3.24045 14.053 3.36747 14.0003 3.5 14H9.5C9.63253 14.0003 9.75955 14.053 9.85326 14.1467C9.94697 14.2404 9.99974 14.3675 10 14.5V20.5ZM20.5 13H14.5C14.1023 13.0005 13.7211 13.1587 13.4399 13.4399C13.1587 13.7211 13.0005 14.1023 13 14.5V20.5C13.0005 20.8977 13.1587 21.2789 13.4399 21.5601C13.7211 21.8413 14.1023 21.9995 14.5 22H20.5C20.8977 21.9995 21.2789 21.8413 21.5601 21.5601C21.8413 21.2789 21.9995 20.8977 22 20.5V14.5C21.9995 14.1023 21.8413 13.7211 21.5601 13.4399C21.2789 13.1587 20.8977 13.0005 20.5 13ZM21 20.5C20.9997 20.6325 20.947 20.7596 20.8533 20.8533C20.7596 20.947 20.6325 20.9997 20.5 21H14.5C14.3675 20.9997 14.2404 20.947 14.1467 20.8533C14.053 20.7596 14.0003 20.6325 14 20.5V14.5C14.0003 14.3675 14.053 14.2404 14.1467 14.1467C14.2404 14.053 14.3675 14.0003 14.5 14H20.5C20.6325 14.0003 20.7596 14.053 20.8533 14.1467C20.947 14.2404 20.9997 14.3675 21 14.5V20.5Z" fill="#FF9600"/>
</g>
<defs>
<clipPath id="clip0_52_80">
<rect width="24" height="24" fill="white"/>
</clipPath>
</defs>
</svg>
