<svg width="26" height="26" viewBox="0 0 26 26" fill="none" xmlns="http://www.w3.org/2000/svg">
<path d="M14.6504 14.9094H13.5078V13.7668C13.5078 13.4875 13.2793 13.259 13 13.259C12.7207 13.259 12.4922 13.4875 12.4922 13.7668V14.9094H11.3496C11.0703 14.9094 10.8418 15.1379 10.8418 15.4172C10.8418 15.6965 11.0703 15.925 11.3496 15.925H12.4922V17.0676C12.4922 17.3469 12.7207 17.5754 13 17.5754C13.2793 17.5754 13.5078 17.3469 13.5078 17.0676V15.925H14.6504C14.9297 15.925 15.1582 15.6965 15.1582 15.4172C15.1582 15.1379 14.9297 14.9094 14.6504 14.9094Z" fill="#003E75"/>
<path d="M21.2012 8.41953H19.6574C19.3172 7.37344 18.7332 6.41875 17.9512 5.63672C16.6309 4.31641 14.8738 3.58516 13 3.58516C9.95312 3.58516 7.27188 5.55547 6.34258 8.41953H4.79883C3.96094 8.41953 3.27539 9.10508 3.27539 9.94297V20.8965C3.27539 21.7344 3.96094 22.4199 4.79883 22.4199H21.2012C22.0391 22.4199 22.7246 21.7344 22.7246 20.8965V9.94297C22.7246 9.1 22.0441 8.41953 21.2012 8.41953ZM13 4.60078C14.5996 4.60078 16.1027 5.22539 17.2301 6.35274C17.8191 6.9418 18.2762 7.64766 18.5758 8.41953H7.41914C8.30273 6.13946 10.5117 4.60078 13 4.60078ZM21.709 20.8914C21.709 21.1707 21.4805 21.3992 21.2012 21.3992H4.79883C4.51953 21.3992 4.29102 21.1707 4.29102 20.8914V9.94297C4.29102 9.66368 4.51953 9.43516 4.79883 9.43516H6.72344H21.2012C21.4805 9.43516 21.709 9.66368 21.709 9.94297V20.8914Z" fill="#003E75"/>
</svg>
