<svg id="Layer_1" enable-background="new 0 0 30 30" height="512" viewBox="0 0 30 30" width="512" xmlns="http://www.w3.org/2000/svg">
  <g>
    <path fill="#1a3d3a" d="m7.2145996 22.0916748h-3.4633789c-.3659668 0-.6628418.296814-.6628418.6629028v3.3948975c0 .3660889.296875.6628418.6628418.6628418h3.4633789c.3662109 0 .6629639-.2967529.6629639-.6628418v-3.3948975c0-.3660888-.296753-.6629028-.6629639-.6629028z"/>
    <path fill="#1a3d3a" d="m13.5598145 16.7836914h-3.4633789c-.3662109 0-.6628418.296814-.6628418.6629028v8.7028809c0 .3660889.2966309.6628418.6628418.6628418h3.4633789c.3659668 0 .6628418-.2967529.6628418-.6628418v-8.7028809c0-.3660888-.296875-.6629028-.6628418-.6629028z"/>
    <path fill="#1a3d3a" d="m19.9049072 18.921875h-3.4633789c-.3660889 0-.6629639.296814-.6629639.6629028v6.5646973c0 .3660889.296875.6628418.6629639.6628418h3.4633789c.3660889 0 .6628418-.2967529.6628418-.6628418v-6.5646973c0-.3660888-.2967529-.6629028-.6628418-.6629028z"/>
    <path fill="#1a3d3a" d="m26.25 13.9421387h-3.4633789c-.3660889 0-.6628418.296814-.6628418.6629028v11.5444336c0 .3660889.2967529.6628418.6628418.6628418h3.4633789c.3660889 0 .6628418-.2967529.6628418-.6628418v-11.5444336c0-.3660889-.2967529-.6629028-.6628418-.6629028z"/>
    <path fill="#1a3d3a" d="m23.3598633 7.8376465c.3476563.1834106.7380371.296936 1.1584473.296936 1.3675537 0 2.4816894-1.097229 2.4816894-2.4647827 0-1.3676147-1.1141357-2.4821167-2.4816895-2.4821167-1.3674316 0-2.4816895 1.114502-2.4816895 2.4821167 0 .2137451.0356445.4171753.086792.614563l-2.5499268 2.0098267c-.3991699-.274292-.8808594-.4364014-1.4002686-.4364014-.7506104 0-1.416626.3428955-1.8723145.8719482l-2.0240479-.9116211c-.161377-1.2131958-1.1925049-2.1569824-2.4487305-2.1569824-1.3674316 0-2.4816895 1.114502-2.4816895 2.4820557 0 .1120605.0185547.218811.0330811.3267822l-2.741333 2.1609497c-.347168-.1849976-.7368164-.2997437-1.1563721-.2997437-1.3675534.0000001-2.4818112 1.114502-2.4818112 2.4821168 0 1.3675537 1.1142578 2.4647217 2.4818115 2.4647217 1.3674316 0 2.4815674-1.097168 2.4815674-2.4647217 0-.2180786-.0373535-.4260254-.0904541-.6277466l2.5516357-2.0111084c.3997803.2727051.8825684.4335327 1.4035645.4335327.7539063 0 1.4223633-.3406372 1.8781738-.8690186l2.0163574.9081421c.1536865 1.2192383 1.1884766 2.1575317 2.4505615 2.1575317 1.3675537 0 2.4816895-1.097229 2.4816895-2.4647827 0-.1173096-.0187988-.2295532-.034668-.3425903z"/>
  </g>
</svg>
