<svg id="Layer_1" enable-background="new 0 0 100 100" viewBox="0 0 100 100" xmlns="http://www.w3.org/2000/svg">
  <path clip-rule="evenodd" d="m50.0085449 2.5c-21.4070206 0-36.3270035 7.2213888-36.3270035 13.6909218 0 6.4870396 14.919981 13.7080116 36.3270035 13.7080116s36.3099136-7.2209721 36.3099136-13.7080116-14.902893-13.6909218-36.3099136-13.6909218zm28.1841278 27.125948c-9.013504 3.3971004-18.573185 5.035841-28.1841278 4.8649654-9.6280327.1708755-19.1877155-1.467865-28.2012196-4.8649654-2.9361515-1.1607075-5.6845474-2.7656918-8.125782-4.7628574v13.2299728c.0683498 6.4528656 15.0054188 13.6567497 36.3270035 13.6567497 21.3044891 0 36.2415619-7.2038841 36.3099136-13.6567497v-13.2470608c-2.4410343 2.0142536-5.1896381 3.6192379-8.1257877 4.7799454zm-.0683517 21.8850536c-8.9793243 3.3625069-18.5219193 5.001667-28.1157761 4.8307915-9.6109467.1708755-19.1535416-1.4682846-28.1328697-4.8482933-2.9703255-1.1436195-5.7360172-2.7652779-8.1941319-4.7966156v14.083519c.0683498 3.141201 3.8067856 6.5553894 9.9866638 9.1497879 8.3987675 3.1924667 17.3439198 4.7628555 26.3403378 4.5923996 21.3044891 0 36.2415619-7.2042999 36.3099136-13.6567497v-14.1689568c-2.4581146 2.0313377-5.2238082 3.652996-8.1941375 4.8141174zm0 22.7723617v-.0170898c-8.5183792 3.1924667-17.5489693 4.8482971-26.6477013 4.8482971-.494915 0-.9729538 0-1.4680748-.0170898-15.9444046 0-29.5498905-3.9434814-36.3270035-9.8157883v14.5273819c.000002 6.4699554 14.919983 13.6909256 36.3270035 13.6909256 21.3899307 0 36.3099136-7.2042999 36.3099136-13.6909256v-14.3394165c-2.4581146 2.0313416-5.2238082 3.6529999-8.1941375 4.8137054z" fill="#1a3d3a" fill-rule="evenodd"/>
</svg>
