<svg width="31" height="31" viewBox="0 0 31 31" fill="none" xmlns="http://www.w3.org/2000/svg">
<path d="M10.199 21.39C10.478 23.033 11.842 24.831 13.113 25.699C13.888 26.226 14.756 26.474 15.593 26.474C15.872 26.474 16.12 26.443 16.368 26.381C19.375 25.73 19.995 22.041 19.685 19.716C19.53 18.538 19.189 17.36 18.693 16.213C20.956 16.213 22.785 14.384 22.785 12.121V5.301C22.785 4.867 22.444 4.526 22.01 4.526H19.313V5.766H21.545V12.152C21.545 13.733 20.274 15.004 18.693 15.004H16.74C15.159 15.004 13.888 13.733 13.888 12.152V5.766H16.151V4.526H13.423C12.989 4.526 12.648 4.867 12.648 5.301V12.152C12.648 14.415 14.477 16.244 16.74 16.244H17.36C17.918 17.422 18.321 18.693 18.476 19.902C18.724 21.7 18.29 24.738 16.12 25.203C15.376 25.358 14.539 25.172 13.795 24.676C12.803 23.994 11.718 22.568 11.439 21.359C12.524 21.049 13.361 20.057 13.361 18.848C13.361 17.422 12.183 16.244 10.757 16.244C9.33102 16.244 8.15302 17.422 8.15302 18.848C8.18402 20.088 9.05202 21.142 10.199 21.39ZM10.788 17.484C11.532 17.484 12.152 18.104 12.152 18.848C12.152 19.592 11.532 20.212 10.788 20.212C10.044 20.212 9.42402 19.592 9.42402 18.848C9.42402 18.104 10.044 17.484 10.788 17.484Z" fill="#003E75"/>
</svg>
