<svg id="Layer_1" height="512" viewBox="0 0 60 60" width="512" xmlns="http://www.w3.org/2000/svg">
  <path d="m20.43 19.02 20.55 20.55v.01c.67.67 1.6.98 2.53.85.9-.12 1.66-.62 2.1-1.39 4.09-7.07 2.92-16.04-2.85-21.8-3.47-3.47-8.1-5.28-12.78-5.28-3.1 0-6.21.79-9.03 2.42-.76.44-1.27 1.21-1.39 2.1-.11.94.2 1.86.87 2.54 0-.01 0 0 0 0zm11.02 5.29c1.17-1.17 3.08-1.17 4.25 0 .56.57.88 1.32.88 2.12s-.32 1.56-.88 2.12c-.59.59-1.36.88-2.12.88-.77 0-1.54-.29-2.13-.88-1.17-1.17-1.17-3.07 0-4.24z" fill="#1a3d3a"/>
  <path d="m30.01 55c6.67 0 12.95-2.6 17.67-7.32 9.75-9.75 9.75-25.61 0-35.36-4.72-4.72-11-7.32-17.67-7.32-6.68 0-12.96 2.6-17.68 7.32s-7.32 11-7.32 17.68 2.6 12.96 7.32 17.68 11 7.32 17.68 7.32zm-17.36-35.04c.76-1.31 2.06-2.17 3.57-2.37.47-.06.93-.05 1.39.02-.07-.45-.08-.92-.02-1.39.2-1.52 1.06-2.82 2.37-3.57 7.85-4.54 17.81-3.23 24.23 3.18 6.41 6.41 7.71 16.37 3.17 24.22-.76 1.31-2.06 2.17-3.57 2.37-.22.03-.45.04-.67.04-.24 0-.48-.04-.72-.07.07.46.08.92.02 1.4-.2 1.51-1.06 2.82-2.37 3.57-3.13 1.81-6.59 2.69-10.02 2.69-5.19 0-10.33-2.01-14.19-5.87-6.42-6.42-7.73-16.38-3.19-24.22z" fill="#1a3d3a"/>
  <path d="m39.04 45.62c.76-.44 1.27-1.21 1.39-2.1.12-.94-.19-1.87-.86-2.54l-20.55-20.55c-.57-.57-1.33-.88-2.13-.88-.14 0-.27.01-.4.03-.89.12-1.66.62-2.1 1.39-4.08 7.06-2.9 16.03 2.87 21.8 5.76 5.76 14.72 6.94 21.78 2.85zm-14.73-14.17c1.17-1.17 3.08-1.17 4.25 0s1.17 3.07 0 4.24c-.59.59-1.36.88-2.13.88-.76 0-1.53-.29-2.12-.88-.58-.58-.88-1.35-.88-2.12s.3-1.54.88-2.12z" fill="#1a3d3a"/>
</svg>
