<svg width="40" height="40" viewBox="0 0 40 40" fill="none" xmlns="http://www.w3.org/2000/svg">
<g clip-path="url(#clip0_946_225)">
<path d="M9.62506 5.875C11.7001 3.8375 15.8501 2.5 20.2126 2.5C24.5751 2.5 28.7501 3.825 30.7501 5.875C30.9908 6.05554 31.2885 6.14319 31.5887 6.12186C31.8888 6.10053 32.1712 5.97165 32.3839 5.75888C32.5967 5.54612 32.7256 5.26375 32.7469 4.96361C32.7682 4.66347 32.6806 4.36572 32.5001 4.125C29.5001 1.075 24.1751 0 20.2001 0C16.2251 0 10.9001 1.0875 7.87506 4.125C7.69452 4.36572 7.60687 4.66347 7.6282 4.96361C7.64953 5.26375 7.77841 5.54612 7.99117 5.75888C8.20394 5.97165 8.48631 6.10053 8.78644 6.12186C9.08658 6.14319 9.38434 6.05554 9.62506 5.875ZM36.5001 15.6875C32.9751 8.6 27.5001 5 20.2126 5C12.9251 5 7.43756 8.6 3.96256 15.6875C3.81429 15.9827 3.78892 16.3246 3.89198 16.6385C3.99504 16.9523 4.21815 17.2126 4.51256 17.3625C4.66009 17.4374 4.82103 17.4823 4.98604 17.4946C5.15106 17.5068 5.31686 17.4862 5.47383 17.4338C5.63081 17.3815 5.77584 17.2985 5.9005 17.1897C6.02516 17.0809 6.12698 16.9485 6.20006 16.8C9.25006 10.5625 13.8501 7.5 20.1876 7.5C26.5251 7.5 31.1501 10.55 34.2751 16.8125C34.3799 17.0205 34.5408 17.1952 34.7395 17.3166C34.9383 17.4381 35.1671 17.5016 35.4001 17.5C35.5912 17.5074 35.7809 17.4643 35.9501 17.375C36.0985 17.3019 36.231 17.2001 36.3398 17.0754C36.4486 16.9508 36.5316 16.8058 36.5839 16.6488C36.6362 16.4918 36.6569 16.326 36.6446 16.161C36.6324 15.996 36.5875 15.835 36.5126 15.6875H36.5001ZM24.2501 35.1C19.0876 32.8875 17.0001 29.475 16.7501 26.975C16.6492 26.3277 16.7275 25.6651 16.9765 25.0591C17.2255 24.4531 17.6357 23.9269 18.1626 23.5375C19.2251 22.825 20.7876 23.8375 23.0001 25.4375C25.2126 27.0375 28.1626 29.1875 30.7126 27.25C32.9626 25.5625 33.6376 22.55 32.5251 19.2C31.6437 16.599 29.9935 14.3268 27.7927 12.684C25.592 11.0413 22.9443 10.1053 20.2001 10C9.00006 10 5.00006 19.6875 5.00006 28.75C5.00006 29.0815 5.13175 29.3995 5.36617 29.6339C5.60059 29.8683 5.91854 30 6.25006 30C6.58158 30 6.89952 29.8683 7.13394 29.6339C7.36836 29.3995 7.50006 29.0815 7.50006 28.75C7.50006 25 8.41256 12.5 20.2001 12.5C25.0751 12.5 28.9501 16.375 30.2001 20C30.5751 21.0875 31.2001 23.75 29.2626 25.25C28.2626 26 26.7626 25 24.5126 23.4125C22.2626 21.825 19.4251 19.7375 16.8376 21.4625C15.9384 22.104 15.2307 22.978 14.7903 23.9909C14.3499 25.0038 14.1934 26.1174 14.3376 27.2125C14.6376 30.4125 17.1376 34.7125 23.3126 37.4C23.4512 37.4595 23.5994 37.4933 23.7501 37.5C24.0391 37.5024 24.3199 37.4045 24.5449 37.2231C24.7699 37.0417 24.925 36.7879 24.984 36.505C25.0429 36.2221 25.002 35.9274 24.8682 35.6713C24.7344 35.4151 24.5159 35.2132 24.2501 35.1ZM12.5001 24.05C12.9873 22.6012 13.8426 21.3038 14.982 20.2849C16.1214 19.2659 17.506 18.5605 19.0001 18.2375C21.8001 17.7 24.4001 18.9875 26.5001 21.9875C26.593 22.128 26.7134 22.2482 26.854 22.341C26.9946 22.4338 27.1525 22.4972 27.3183 22.5274C27.484 22.5577 27.6541 22.5541 27.8184 22.5169C27.9827 22.4797 28.1378 22.4097 28.2744 22.3111C28.4109 22.2124 28.5262 22.0872 28.6131 21.9429C28.7001 21.7987 28.757 21.6383 28.7804 21.4715C28.8038 21.3046 28.7932 21.1348 28.7494 20.9722C28.7055 20.8095 28.6292 20.6574 28.5251 20.525C24.9001 15.4375 20.6876 15.375 18.5251 15.775C16.5501 16.1854 14.7197 17.1136 13.2217 18.4645C11.7237 19.8154 10.6118 21.5403 10.0001 23.4625C8.75006 28.3875 10.5376 33.8 15.2501 39.55C15.3703 39.6984 15.523 39.8172 15.6964 39.8974C15.8697 39.9775 16.0591 40.0169 16.2501 40.0125C16.539 40.0168 16.8193 39.9144 17.0376 39.725C17.2914 39.5152 17.4521 39.2137 17.4849 38.886C17.5176 38.5583 17.4198 38.2309 17.2126 37.975C13.0376 32.85 11.4376 28.1875 12.5001 24.0625V24.05ZM31.6251 30.375C31.1213 30.8449 30.4979 31.167 29.8232 31.306C29.1484 31.4449 28.4484 31.3952 27.8001 31.1625C24.8001 30.45 21.8251 27.7875 21.1751 25.85C21.1225 25.6941 21.0398 25.55 20.9316 25.426C20.8234 25.302 20.6918 25.2006 20.5444 25.1275C20.397 25.0543 20.2366 25.011 20.0724 24.9998C19.9083 24.9887 19.7435 25.01 19.5876 25.0625C19.4316 25.115 19.2875 25.1978 19.1636 25.306C19.0396 25.4142 18.9381 25.5457 18.865 25.6932C18.7919 25.8406 18.7485 26.0009 18.7374 26.1651C18.7262 26.3293 18.7475 26.4941 18.8001 26.65C19.8001 29.5625 23.6376 32.75 27.2251 33.6C27.848 33.7458 28.4853 33.8213 29.1251 33.825C29.9103 33.8421 30.691 33.7016 31.421 33.4117C32.151 33.1219 32.8154 32.6886 33.3751 32.1375C33.5556 31.8968 33.6432 31.599 33.6219 31.2989C33.6006 30.9988 33.4717 30.7164 33.2589 30.5036C33.0462 30.2909 32.7638 30.162 32.4637 30.1406C32.1635 30.1193 31.8658 30.207 31.6251 30.3875V30.375Z" fill="#1D9BFF"/>
</g>
<defs>
<clipPath id="clip0_946_225">
<rect width="40" height="40" fill="white"/>
</clipPath>
</defs>
</svg>
