<svg width="77" height="77" viewBox="0 0 77 77" fill="none" xmlns="http://www.w3.org/2000/svg">
<path d="M42.2238 11.3101C49.4815 12.3098 55.9173 16.0761 60.3456 21.9154C64.7741 27.7547 66.6649 34.9678 65.6702 42.226C64.6755 49.4842 60.914 55.9188 55.0786 60.3443C49.2433 64.7698 42.0327 66.6564 34.7751 65.6568C27.5175 64.6572 21.0817 60.8907 16.6533 55.0515C12.2249 49.2122 10.3339 41.999 11.3287 34.7409C12.3235 27.4828 16.0851 21.0481 21.9205 16.6226C27.7557 12.197 34.9663 10.3103 42.2238 11.3101Z" fill="#003DA6"/>
<path d="M55.9407 25.2552C48.6304 15.616 34.8953 13.724 25.2626 21.0294C15.6299 28.3348 13.7472 42.0711 21.0575 51.7103C28.3678 61.3495 42.1028 63.2414 51.7355 55.9361C61.3683 48.6307 63.251 34.8944 55.9407 25.2552Z" fill="#0053E2"/>
<path d="M40.7903 21.7679C50.0062 23.0373 56.4761 31.5685 55.2131 40.7853C54.6008 45.2528 52.291 49.2109 48.7092 51.9304C45.1275 54.65 40.6944 55.8115 36.2268 55.2011L36.2083 55.1985C30.7795 54.4508 26.0323 51.0932 23.5096 46.2169C22.898 45.0348 23.2061 43.5525 24.2584 42.612C25.6933 41.3298 27.2095 39.6578 27.5768 36.9787C27.9444 34.2963 26.9342 32.278 25.8975 30.6576C25.1373 29.4693 25.2326 27.9656 26.1294 27.0008C29.8713 22.9749 35.352 21.0189 40.7903 21.7679Z" fill="#4388FF"/>
<path d="M22.6147 33.6377C21.7253 33.5161 20.8419 34.6051 20.6417 36.07C20.4415 37.5349 21.0002 38.8209 21.8896 38.9425C22.779 39.0641 23.6623 37.9751 23.8625 36.5102C24.0628 35.0453 23.5041 33.7592 22.6147 33.6377Z" fill="white"/>
</svg>
