<svg width="14" height="14" viewBox="0 0 14 14" fill="none" xmlns="http://www.w3.org/2000/svg">
<path fill-rule="evenodd" clip-rule="evenodd" d="M6.99988 1.16663C10.2193 1.16663 12.8333 3.78057 12.8333 7.00001C12.8333 10.2194 10.2193 12.8334 6.99988 12.8334C3.78044 12.8334 1.1665 10.2194 1.1665 7.00001C1.1665 3.78057 3.78044 1.16663 6.99988 1.16663ZM7.58326 4.27253V3.93751C7.58326 3.61551 7.32188 3.35413 6.99988 3.35413C6.67788 3.35413 6.4165 3.61551 6.4165 3.93751V4.27253C6.4165 4.59439 6.67788 4.85577 6.99988 4.85577C7.32188 4.85577 7.58326 4.59439 7.58326 4.27253ZM7.58326 10.0625V6.21671C7.58326 5.89485 7.32188 5.63347 6.99988 5.63347C6.67788 5.63347 6.4165 5.89485 6.4165 6.21671V10.0625C6.4165 10.3845 6.67788 10.6459 6.99988 10.6459C7.32188 10.6459 7.58326 10.3845 7.58326 10.0625Z" fill="#8C8C8C"/>
</svg>
