<svg height="512" viewBox="0 0 32 32" width="512" xmlns="http://www.w3.org/2000/svg">
    <g id="_x30_3">
        <path fill="#1a3d3a" d="m25.4472656 19.1054688c-.28125-.140625-.6132813-.140625-.8945313 0 0 0-4.0620117 2.0438843-4.0940552 2.0648193l4.5413209 2.2706299 4.5413208-2.2706299c-.0320435-.0209351-4.0940552-2.0648193-4.0940552-2.0648193z"/>
        <path fill="#1a3d3a" d="m20 27c0 .3789063.2138672.7250977.5527344.8945313l3.9472656 2.1054687v-5.690918l-4.5-2.25z"/>
        <path fill="#1a3d3a" d="m25.5 24.309082v5.690918l3.9472656-2.1054688c.3388672-.1694335.5527344-.5156249.5527344-.8945312v-4.940918z"/>
        <path fill="#1a3d3a" d="m13.4472656 19.1054688c-.28125-.140625-.6132813-.140625-.8945313 0 0 0-4.0620117 2.0438843-4.0940552 2.0648193l4.5413209 2.2706299 4.5413208-2.2706299c-.0320435-.0209351-4.0940552-2.0648193-4.0940552-2.0648193z"/>
        <path fill="#1a3d3a" d="m8 27c0 .3789063.2138672.7250977.5527344.8945313l3.9472656 2.1054687v-5.690918l-4.5-2.25z"/>
        <path fill="#1a3d3a" d="m13.5 30 3.9472656-2.1054688c.3388672-.1694335.5527344-.5156249.5527344-.8945312v-4.940918l-4.5 2.25z"/>
        <path fill="#1a3d3a" d="m19.4472656 9.1054688c-.28125-.140625-.6132813-.140625-.8945313 0 0 0-4.0620117 2.0438843-4.0940552 2.0648193l4.5413209 2.2706299 4.5413208-2.2706299c-.0320435-.0209351-4.0940552-2.0648193-4.0940552-2.0648193z"/>
        <path fill="#1a3d3a" d="m14 17c0 .3789063.2138672.7250977.5527344.8945313l3.9472656 2.1054687v-5.690918l-4.5-2.25z"/>
        <path fill="#1a3d3a" d="m7 27v-6.0725708s.9912109-.6461792 5.1030273-2.7150269c.2788086-.1396484.5532227-.2124023.8969727-.2124023v-7.0725708s.9912109-.6461792 5.1035156-2.7150269c.2783203-.1396484.5878907-.2124023.8964844-.2124023s.6181641.0727539.8945313.2109375c.41156.2070313.7717285.3882446 1.1054687.5562134v-5.7671509c0-.5522461-.4477539-1-1-1h-3.5829468l-.9321899 3.7275391c-.0556641.2226562-.2553711.3789062-.4848633.3789062h-7c-.2294922 0-.4291992-.15625-.4848633-.3789063l-.9321899-3.727539h-3.5829468c-.5522461 0-1 .4477539-1 1v26c0 .5522461.4477539 1 1 1h7.375l-2.2929688-1.2231445c-.6582031-.3291016-1.0820312-1.0141602-1.0820312-1.7768555zm-1-18c1.1030273 0 2 .8969727 2 2s-.8969727 2-2 2-2-.8969727-2-2 .8969727-2 2-2zm-2 8c0-1.1030273.8969727-2 2-2s2 .8969727 2 2-.8969727 2-2 2-2-.8969727-2-2z"/>
        <path fill="#1a3d3a" d="m24 17v-4.940918l-4.5 2.25v5.690918l3.9472656-2.1054688c.3388672-.1694335.5527344-.5156249.5527344-.8945312z"/>
        <path fill="#1a3d3a" d="m14.609375 5.1064453.7767944-3.1064453h-7.7723388l.7767944 3.1064453z"/>
    </g>
</svg>
