<svg width="29" height="19" viewBox="0 0 29 19" fill="none" xmlns="http://www.w3.org/2000/svg">
<path d="M27.8207 0H0V19H29V0H27.8207ZM26.6599 1.18722L15.4563 12.6563C14.945 13.1797 14.0539 13.1797 13.5426 12.6563L2.33689 1.18722H26.6599ZM1.15974 1.66055L8.69152 9.36969L1.15974 17.08V1.66055ZM2.08557 17.8128L9.51291 10.2106L12.7234 13.496C13.1977 13.9816 13.8287 14.25 14.5 14.25C15.1713 14.25 15.8023 13.9816 16.2766 13.496L19.4871 10.2094L26.9133 17.8117H2.08448L2.08557 17.8128ZM27.8403 17.0811L20.3085 9.36969L27.8403 1.65832V17.0811Z" fill="#003E75"/>
</svg>
