<svg clip-rule="evenodd" fill-rule="evenodd" height="512" stroke-linejoin="round" stroke-miterlimit="2" viewBox="0 0 32 32" width="512" xmlns="http://www.w3.org/2000/svg">
  <g transform="translate(-240 -336)">
    <path d="m255 356c0-.796-.316-1.559-.879-2.121-.562-.563-1.325-.879-2.121-.879-1.986 0-5.014 0-7 0-.796 0-1.559.316-2.121.879-.563.562-.879 1.325-.879 2.121v7c0 .796.316 1.559.879 2.121.562.563 1.325.879 2.121.879h7c.796 0 1.559-.316 2.121-.879.563-.562.879-1.325.879-2.121zm15 0c0-.796-.316-1.559-.879-2.121-.562-.563-1.325-.879-2.121-.879-1.986 0-5.014 0-7 0-.796 0-1.559.316-2.121.879-.563.562-.879 1.325-.879 2.121v7c0 .796.316 1.559.879 2.121.562.563 1.325.879 2.121.879h7c.796 0 1.559-.316 2.121-.879.563-.562.879-1.325.879-2.121zm-4.379-5.207 4.172-4.172c1.171-1.171 1.171-3.071 0-4.242l-4.172-4.172c-1.171-1.171-3.071-1.171-4.242 0l-4.172 4.172c-1.171 1.171-1.171 3.071 0 4.242l4.172 4.172c1.171 1.171 3.071 1.171 4.242 0zm-10.621-9.793c0-.796-.316-1.559-.879-2.121-.562-.563-1.325-.879-2.121-.879-1.986 0-5.014 0-7 0-.796 0-1.559.316-2.121.879-.563.562-.879 1.325-.879 2.121v7c0 .796.316 1.559.879 2.121.562.563 1.325.879 2.121.879h7c.796 0 1.559-.316 2.121-.879.563-.562.879-1.325.879-2.121z" fill="#ffffff"/>
  </g>
</svg>
