<svg xmlns="http://www.w3.org/2000/svg" version="1.1" xmlns:xlink="http://www.w3.org/1999/xlink" width="512" height="512" x="0" y="0" viewBox="0 0 512.001 512.001" style="enable-background:new 0 0 512 512" xml:space="preserve" class=""><g><path d="M422.244 430.198C438.818 403.346 448 373.081 448 341.335c0-73.952-46.664-138.103-116.374-161.483-9.379-15.152-24.776-26.092-42.94-29.37l9.98-19.96c2.635-5.271.5-11.677-4.771-14.312l9.542-19.083a10.69 10.69 0 0 0 14.313-4.771l22.458-44.917c2.635-5.271.5-11.677-4.771-14.313l-64-32c-5.281-2.625-11.667-.51-14.313 4.771l-22.458 44.917c-2.635 5.271-.5 11.677 4.771 14.313l-9.542 19.083c-5.26-2.615-11.677-.5-14.313 4.771l-86.458 172.917c-2.635 5.271-.5 11.677 4.771 14.313l64 32a10.667 10.667 0 0 0 14.312-4.771l21.694-43.382c11.431 10.632 26.625 17.277 43.431 17.277 14.004 0 26.863-4.65 37.411-12.307 29.22 14.289 47.922 43.49 47.922 76.307 0 47.052-38.281 85.333-85.333 85.333h-85.333v-21.333h32a10.66 10.66 0 0 0 10.667-10.667 10.66 10.66 0 0 0-10.667-10.667H74.667A10.66 10.66 0 0 0 64 394.668a10.66 10.66 0 0 0 10.667 10.667h32v21.333C83.136 426.668 64 445.803 64 469.335v32a10.66 10.66 0 0 0 10.667 10.667h362.667a10.66 10.66 0 0 0 10.667-10.667v-32c0-17.52-10.625-32.573-25.757-39.137zm-144.91-195.53c-11.76 0-21.333-9.573-21.333-21.333 0-11.76 9.573-21.333 21.333-21.333 11.76 0 21.333 9.573 21.333 21.333 0 11.76-9.573 21.333-21.333 21.333z" fill="#234c48" opacity="1" data-original="#000000" class=""></path></g></svg>