<svg xmlns="http://www.w3.org/2000/svg" version="1.1" xmlns:xlink="http://www.w3.org/1999/xlink" width="512" height="512" x="0" y="0" viewBox="0 0 100 100" style="enable-background:new 0 0 512 512" xml:space="preserve" class=""><g><path d="m60.388 79.873.462-.648-.829-.14c-2.182-.268-3.811-2.119-3.811-4.354v-4.36a4.382 4.382 0 0 1 3.844-4.361l.793-.132-.487-.682a4.345 4.345 0 0 1 .386-5.775l.101-.1c-2.539-.82-5.319-2.113-8.302-4.43L44.99 71.085l-1.934-5.903c.407-.298.676-.775.752-1.431l1.425-3.402c0-.988-.867-1.79-1.934-1.79H38.662c-1.068 0-1.935.802-1.935 1.79l1.425 3.402c.076.655.345 1.133.752 1.431l-1.935 5.903-7.555-16.194C14.797 66.242 5 53.046 5 79.763c0 7.311 19.513 10.829 35.907 10.829l.072-.001.072.001c7.525 0 15.701-.743 22.352-2.252l-2.662-2.663a4.376 4.376 0 0 1-.353-5.804zM25.264 39.633c2.809 7.652 8.821 14.879 15.788 14.879 6.975 0 12.991-7.245 15.798-14.908 1.084-.321 2.22-2.376 2.683-5.001.503-2.853.026-5.342-1.063-5.75a34.325 34.325 0 0 0-.266-2.799c-.438-8.067-2.903-11.673-6.546-13.282-2.579-2.071-6.029-3.363-10.605-3.363-4.565 0-8.003 1.26-10.572 3.284-4.011 1.685-6.636 5.696-6.786 15.213-.024.303-.044.604-.062.904-1.19.232-1.731 2.816-1.205 5.793.484 2.749 1.709 4.869 2.836 5.03z" fill="#234c48" opacity="1" data-original="#000000" class=""></path><path d="m93.521 68.695-2.722-.454a14.221 14.221 0 0 0-1.009-2.434l1.582-2.214a1.685 1.685 0 0 0-.113-2.259l-3.088-3.083a1.658 1.658 0 0 0-1.19-.493c-.39 0-.77.133-1.036.356L83.7 59.718a14.48 14.48 0 0 0-2.436-1.011l-.446-2.68a1.684 1.684 0 0 0-1.681-1.518h-4.361c-.869 0-1.592.653-1.673 1.479l-.451 2.719c-.844.262-1.659.601-2.438 1.011l-2.211-1.582a1.682 1.682 0 0 0-1.06-.365c-.44 0-.881.162-1.201.481l-3.084 3.083c-.619.613-.666 1.588-.139 2.229l1.605 2.243a14.436 14.436 0 0 0-1.01 2.434l-2.682.448a1.684 1.684 0 0 0-1.518 1.681v4.36c0 .875.652 1.595 1.479 1.674l2.72.456c.259.835.601 1.652 1.01 2.434l-1.577 2.211a1.68 1.68 0 0 0 .11 2.262l3.083 3.083c.318.317.741.497 1.194.497.389 0 .767-.138 1.034-.36l2.244-1.603c.782.411 1.595.75 2.438 1.01l.443 2.682a1.686 1.686 0 0 0 1.681 1.517h4.361c.872 0 1.594-.652 1.673-1.478l.454-2.721c.841-.26 1.656-.599 2.436-1.01l2.211 1.577c.301.247.682.368 1.062.368.44 0 .881-.163 1.198-.481l3.084-3.083c.616-.614.666-1.587.14-2.229l-1.604-2.242c.41-.777.749-1.595 1.009-2.437l2.678-.453A1.67 1.67 0 0 0 95 74.73v-4.36c0-.872-.653-1.593-1.479-1.675zM76.956 79.766c-3.979 0-7.217-3.234-7.217-7.216 0-3.98 3.238-7.217 7.217-7.217 3.98 0 7.219 3.236 7.219 7.217s-3.238 7.216-7.219 7.216z" fill="#234c48" opacity="1" data-original="#000000" class=""></path></g></svg>