<svg width="8" height="8" viewBox="0 0 8 8" fill="none" xmlns="http://www.w3.org/2000/svg">
<g clip-path="url(#clip0_946_185)">
<path fill-rule="evenodd" clip-rule="evenodd" d="M0.666504 0.999959C0.666504 0.815866 0.815744 0.666626 0.999837 0.666626H3.33317C3.51727 0.666626 3.6665 0.815866 3.6665 0.999959V3.33329C3.6665 3.51739 3.51727 3.66663 3.33317 3.66663H0.999837C0.815744 3.66663 0.666504 3.51739 0.666504 3.33329V0.999959ZM1.6665 1.99996C1.6665 1.81587 1.81574 1.66663 1.99984 1.66663H2.33317C2.51726 1.66663 2.6665 1.81587 2.6665 1.99996V2.33329C2.6665 2.51739 2.51726 2.66663 2.33317 2.66663H1.99984C1.81574 2.66663 1.6665 2.51739 1.6665 2.33329V1.99996Z" fill="#1D9BFF"/>
<path fill-rule="evenodd" clip-rule="evenodd" d="M0.666504 4.66659C0.666504 4.48249 0.815744 4.33325 0.999837 4.33325H3.33317C3.51727 4.33325 3.6665 4.48249 3.6665 4.66659V6.99992C3.6665 7.18402 3.51727 7.33325 3.33317 7.33325H0.999837C0.815744 7.33325 0.666504 7.18402 0.666504 6.99992V4.66659ZM1.99984 5.33325C1.81574 5.33325 1.6665 5.48249 1.6665 5.66659V5.99992C1.6665 6.18402 1.81574 6.33325 1.99984 6.33325H2.33317C2.51726 6.33325 2.6665 6.18402 2.6665 5.99992V5.66659C2.6665 5.48249 2.51726 5.33325 2.33317 5.33325H1.99984Z" fill="#1D9BFF"/>
<path fill-rule="evenodd" clip-rule="evenodd" d="M4.66634 0.666626C4.48224 0.666626 4.33301 0.815866 4.33301 0.999959V3.33329C4.33301 3.51739 4.48224 3.66663 4.66634 3.66663H6.99967C7.18377 3.66663 7.33301 3.51739 7.33301 3.33329V0.999959C7.33301 0.815866 7.18377 0.666626 6.99967 0.666626H4.66634ZM5.33301 1.99996C5.33301 1.81587 5.48224 1.66663 5.66634 1.66663H5.99967C6.18377 1.66663 6.33301 1.81587 6.33301 1.99996V2.33329C6.33301 2.51739 6.18377 2.66663 5.99967 2.66663H5.66634C5.48224 2.66663 5.33301 2.51739 5.33301 2.33329V1.99996Z" fill="#1D9BFF"/>
<path d="M4.66634 4.33325C4.48224 4.33325 4.33301 4.48249 4.33301 4.66659V4.99992C4.33301 5.18402 4.48224 5.33325 4.66634 5.33325H4.99967V5.99992C4.99967 6.18402 5.14891 6.33325 5.33301 6.33325H5.66634C5.85044 6.33325 5.99967 6.18402 5.99967 5.99992V5.33325C5.99967 5.14915 5.85044 4.99992 5.66634 4.99992H5.33301V4.66659C5.33301 4.48249 5.18377 4.33325 4.99967 4.33325H4.66634Z" fill="#1D9BFF"/>
<path d="M4.66634 6.33325C4.48224 6.33325 4.33301 6.48249 4.33301 6.66659V6.99992C4.33301 7.18402 4.48224 7.33325 4.66634 7.33325H4.99967C5.18377 7.33325 5.33301 7.18402 5.33301 6.99992V6.66659C5.33301 6.48249 5.18377 6.33325 4.99967 6.33325H4.66634Z" fill="#1D9BFF"/>
<path d="M6 4.66659C6 4.48249 6.14923 4.33325 6.33333 4.33325H6.66667C6.85077 4.33325 7 4.48249 7 4.66659V4.99992C7 5.18402 6.85077 5.33325 6.66667 5.33325H6.33333C6.14923 5.33325 6 5.18402 6 4.99992V4.66659Z" fill="#1D9BFF"/>
<path d="M6.33333 6.33325C6.14923 6.33325 6 6.48249 6 6.66659V6.99992C6 7.18402 6.14923 7.33325 6.33333 7.33325H6.66667C6.85077 7.33325 7 7.18402 7 6.99992V6.66659C7 6.48249 6.85077 6.33325 6.66667 6.33325H6.33333Z" fill="#1D9BFF"/>
</g>
<defs>
<clipPath id="clip0_946_185">
<rect width="8" height="8" fill="white"/>
</clipPath>
</defs>
</svg>
