<svg xmlns="http://www.w3.org/2000/svg" version="1.1" xmlns:xlink="http://www.w3.org/1999/xlink" width="512" height="512" x="0" y="0" viewBox="0 0 32 32" style="enable-background:new 0 0 512 512" xml:space="preserve" fill-rule="evenodd" class=""><g><path d="M2.5 23a.5.5 0 0 1 1 0v2A1.5 1.5 0 0 0 5 26.5h2a.5.5 0 0 1 0 1H5A2.5 2.5 0 0 1 2.5 25zm27-14a.5.5 0 0 1-1 0V7A1.5 1.5 0 0 0 27 5.5h-2a.5.5 0 0 1 0-1h2A2.5 2.5 0 0 1 29.5 7zm-2-1v16a1.503 1.503 0 0 1-1.5 1.5H6A1.503 1.503 0 0 1 4.5 24V8A1.503 1.503 0 0 1 6 6.5h20A1.503 1.503 0 0 1 27.5 8zm-13 13.226v.274a.997.997 0 0 0 1 1h1a.997.997 0 0 0 1-1v-.274c.538-.44 1.321-.791 1.848-.729 1.655.194 2.609 1.967 2.609 1.967a.5.5 0 0 0 .93-.151c.996-5.454-.223-9.066-1.489-10.911-.604-.881-1.243-1.379-1.693-1.54-.661-.237-1.309-.098-1.849.175a3.658 3.658 0 0 0-.384.226.997.997 0 0 0-.972-.763h-1a.997.997 0 0 0-.972.763 3.658 3.658 0 0 0-.384-.226c-.54-.273-1.188-.412-1.849-.175-.45.161-1.089.659-1.693 1.54-1.266 1.845-2.485 5.457-1.489 10.911a.5.5 0 0 0 .93.151s.954-1.773 2.609-1.967c.527-.062 1.31.289 1.848.729zm3-6.426c.104-.158.333-.467.66-.704.265-.191.601-.339.996-.262.526.102 1.056.507 1.514.936.752.706 1.305 1.512 1.305 1.512a.5.5 0 0 0 .15.144c.065.501.108 1.034.122 1.601a8.864 8.864 0 0 0-1.127-1.217c-.532-.46-1.113-.776-1.656-.807-.823-.048-1.483.273-1.964.648zm0 3.281c.198-.299.851-1.141 1.907-1.08.494.029.997.468 1.451.94.684.713 1.225 1.564 1.352 1.771-.028.41-.069.834-.127 1.272-.577-.629-1.47-1.346-2.618-1.481-.547-.064-1.304.161-1.965.528zm-3-6.552v1.813a2.05 2.05 0 0 0-.074-.056c-.469-.339-1.072-.569-1.772-.434-.69.134-1.407.626-2.007 1.189-.117.109-.229.22-.336.331a9.77 9.77 0 0 1 .635-1.592c.581-1.138 1.231-1.813 1.687-1.977.38-.136.75-.03 1.06.126.363.184.654.446.807.6zm-4.625 4.897a.5.5 0 0 0 .15-.144s.553-.806 1.305-1.512c.458-.429.988-.834 1.514-.936.395-.077.731.071.996.262.327.237.556.546.66.704v1.851c-.481-.375-1.141-.696-1.964-.648-.543.031-1.124.347-1.656.807-.416.36-.806.806-1.127 1.217.014-.567.057-1.1.122-1.601zm-.085 3.285c.128-.207.669-1.057 1.352-1.77.454-.472.957-.911 1.451-.94 1.056-.061 1.709.781 1.907 1.08v1.95c-.661-.367-1.418-.592-1.965-.528-1.148.135-2.041.852-2.618 1.48a20.888 20.888 0 0 1-.127-1.272zm7.71-8.182c.153-.154.444-.416.807-.6.31-.156.68-.262 1.06-.126.456.164 1.106.839 1.687 1.977.234.458.451.989.635 1.592a8.784 8.784 0 0 0-.336-.331c-.6-.563-1.317-1.055-2.007-1.189-.7-.135-1.303.095-1.772.434a2.05 2.05 0 0 0-.074.056z" fill="#234c48" opacity="1" data-original="#000000" class=""></path></g></svg>