<svg width="14" height="14" viewBox="0 0 14 14" fill="none" xmlns="http://www.w3.org/2000/svg">
<path d="M1.6612 9.69497C-0.553666 7.48006 -0.553621 3.8761 1.6612 1.66119C3.87612 -0.553729 7.48003 -0.553729 9.6949 1.66119C11.574 3.54024 11.8585 6.33487 10.5494 8.51718C10.5494 8.51718 10.4554 8.67494 10.5824 8.80185C11.3069 9.52634 13.4807 11.7001 13.4807 11.7001C14.0575 12.277 14.1949 13.0836 13.6833 13.5952L13.5952 13.6832C13.0836 14.1949 12.277 14.0576 11.7001 13.4807C11.7001 13.4807 9.53101 11.3115 8.80796 10.5885C8.67487 10.4555 8.51716 10.5495 8.51716 10.5495C6.33489 11.8586 3.54026 11.574 1.6612 9.69497ZM8.64614 8.64617C10.2827 7.00957 10.2827 4.34668 8.6461 2.71008C7.0095 1.07353 4.34661 1.07349 2.71006 2.71008C1.07346 4.34663 1.07346 7.00957 2.71006 8.64617C4.34665 10.2827 7.0095 10.2827 8.64614 8.64617Z" fill="#878787"/>
<path d="M8.2839 5.34094C8.36008 5.34094 8.43752 5.32596 8.51216 5.29444C8.81031 5.16825 8.94981 4.82422 8.82362 4.52602C8.03049 2.6517 5.8604 1.77211 3.98613 2.56525C3.68797 2.69144 3.54848 3.03546 3.67467 3.33366C3.8009 3.63186 4.14483 3.77127 4.44313 3.64512C5.7219 3.10401 7.20263 3.70416 7.74369 4.98293C7.83836 5.20658 8.05547 5.34094 8.2839 5.34094Z" fill="#003DA6" fill-opacity="0.5"/>
</svg>
