<svg width="50" height="50" viewBox="0 0 50 50" fill="none" xmlns="http://www.w3.org/2000/svg">
<path d="M26.153 5.19567C25.8569 4.87192 25.4386 4.6875 24.9998 4.6875C24.5611 4.6875 24.1428 4.87192 23.8467 5.19567L15.5133 14.3102C14.9311 14.9471 14.9753 15.9355 15.6122 16.5177C16.2491 17.1 17.2374 17.0558 17.8197 16.4189L23.4373 10.2746V33.3333C23.4373 34.1962 24.1369 34.8958 24.9998 34.8958C25.8628 34.8958 26.5623 34.1962 26.5623 33.3333V10.2746L32.1801 16.4189C32.7623 17.0558 33.7507 17.1 34.3876 16.5177C35.0244 15.9355 35.0686 14.9471 34.4863 14.3102L26.153 5.19567Z" fill="#1D9BFF"/>
<path d="M7.8125 31.25C7.8125 30.3871 7.11296 29.6875 6.25 29.6875C5.38706 29.6875 4.6875 30.3871 4.6875 31.25V31.3644C4.68746 34.2135 4.68742 36.51 4.93025 38.3162C5.18238 40.1915 5.72173 41.7702 6.97573 43.0242C8.22973 44.2783 9.80863 44.8177 11.6839 45.0698C13.49 45.3125 15.7865 45.3125 18.6357 45.3125H31.3644C34.2135 45.3125 36.51 45.3125 38.3162 45.0698C40.1915 44.8177 41.7702 44.2783 43.0244 43.0242C44.2783 41.7702 44.8177 40.1915 45.0698 38.3162C45.3125 36.51 45.3125 34.2135 45.3125 31.3644V31.25C45.3125 30.3871 44.6129 29.6875 43.75 29.6875C42.8871 29.6875 42.1875 30.3871 42.1875 31.25C42.1875 34.2404 42.1842 36.326 41.9727 37.8998C41.7671 39.4285 41.3912 40.2379 40.8146 40.8146C40.2379 41.3912 39.4285 41.7671 37.8998 41.9727C36.326 42.1842 34.2404 42.1875 31.25 42.1875H18.75C15.7596 42.1875 13.6739 42.1842 12.1003 41.9727C10.5716 41.7671 9.76202 41.3912 9.18544 40.8146C8.60885 40.2379 8.23292 39.4285 8.0274 37.8998C7.81581 36.326 7.8125 34.2404 7.8125 31.25Z" fill="#1D9BFF"/>
</svg>
