<svg width="10" height="10" viewBox="0 0 10 10" fill="none" xmlns="http://www.w3.org/2000/svg">
<g clip-path="url(#clip0_946_216)">
<path d="M5.34149 0.937918L5.34149 0.93791C5.25387 0.842096 5.13004 0.7875 5.00016 0.7875C4.87029 0.7875 4.74646 0.842096 4.65884 0.93791L4.65884 0.937918L2.99216 2.76083C2.8198 2.94935 2.8329 3.2419 3.02142 3.41425L3.02142 3.41426C3.20994 3.58661 3.50248 3.57351 3.67484 3.385L3.56413 3.28378L3.67484 3.385L4.53766 2.44128V6.66667C4.53766 6.92209 4.74474 7.12917 5.00016 7.12917C5.25559 7.12917 5.46266 6.92209 5.46266 6.66667V2.44128L6.3255 3.385C6.49786 3.57351 6.79041 3.58661 6.97892 3.41425C7.16745 3.24189 7.18051 2.94934 7.00816 2.76083L5.34149 0.937918Z" fill="#1D9BFF" stroke="#1D9BFF" stroke-width="0.3"/>
<path d="M7.55996 8.24588C7.84899 8.207 7.97398 8.13972 8.05685 8.05685C8.13971 7.97399 8.207 7.84899 8.24588 7.55998C8.28651 7.25756 8.2875 6.8524 8.2875 6.25C8.2875 5.99457 8.49457 5.7875 8.75 5.7875C9.00543 5.7875 9.2125 5.99457 9.2125 6.25V6.27288V6.28317C9.2125 6.84451 9.2125 7.31201 9.16262 7.68323C9.10997 8.07486 8.99427 8.42757 8.71094 8.7109C8.42757 8.99427 8.07486 9.10997 7.68323 9.16262L7.68323 9.16262C7.312 9.2125 6.8445 9.2125 6.28314 9.2125H6.27288H3.72714H3.71687C3.15552 9.2125 2.68801 9.2125 2.31679 9.16262L2.31679 9.16262C1.92517 9.10998 1.57242 8.99428 1.28908 8.7109C1.28908 8.7109 1.28908 8.71089 1.28907 8.71089M7.55996 8.24588L0.98605 7.66325C1.03648 8.03829 1.14435 8.35404 1.39515 8.60483L1.28907 8.71089M7.55996 8.24588C7.25754 8.28651 6.85239 8.2875 6.25 8.2875H3.75C3.14761 8.2875 2.74244 8.28651 2.44005 8.24588C2.15102 8.207 2.026 8.13971 1.94316 8.05686C1.8603 7.97399 1.79299 7.84898 1.75414 7.55997L1.75414 7.55997C1.71348 7.25756 1.7125 6.85241 1.7125 6.25C1.7125 5.99458 1.50544 5.7875 1.25 5.7875C0.994569 5.7875 0.7875 5.99458 0.7875 6.25V6.27287V6.27288L0.7875 6.28322C0.78749 6.84454 0.787482 7.31202 0.837388 7.68324L0.837388 7.68324C0.890041 8.07485 1.00574 8.42756 1.28907 8.71089M7.55996 8.24588L1.28907 8.71089" fill="#1D9BFF" stroke="#1D9BFF" stroke-width="0.3"/>
</g>
<defs>
<clipPath id="clip0_946_216">
<rect width="10" height="10" fill="white"/>
</clipPath>
</defs>
</svg>
